<?xml version="1.0" encoding="utf-8"?>
<!-- Generator: Adobe Illustrator 19.0.0, SVG Export Plug-In . SVG Version: 6.00 Build 0)  -->
<svg version="1.1" id="object" xmlns="http://www.w3.org/2000/svg" xmlns:xlink="http://www.w3.org/1999/xlink" x="0px" y="0px"
	 viewBox="0 0 231.4 231.9" style="enable-background:new 0 0 231.4 231.9;" xml:space="preserve">
<style type="text/css">
	.st0{fill:#1B5A9B;}
	.st1{fill:#3A9AFD;}
	.st2{fill:#DBF022;}
	.st3{fill:#FFFFFF;}
	.st4{fill:#231F20;}
</style>
<g>
	<g>
		<path class="st0" d="M95.2,217.3c-0.6-1.5-2.5-2.7-4.2-2.7l-22.7,0.5c-1.6,0-4.3,0.5-5.8,1.1L49.7,221c-1.5,0.6-1.5,1.2,0.2,1.4
			l17.4,1.9c1.6,0.2,3.5,1.6,4.1,3.1l1.1,2.9c0.6,1.5,2.2,2,3.6,1.1l8.3-5.7c1.4-0.9,3.6-1,5-0.2l10,6.1c1.4,0.9,2,0.3,1.4-1.2
			L95.2,217.3z"/>
		<path class="st0" d="M157.6,227.2c1.1-1.2,3.2-1.7,4.7-1.1l9.4,4c1.5,0.6,2,0,1.2-1.4l-7.2-11.7c-0.9-1.4-2.9-2.3-4.5-1.9l-19,4.3
			c-1.6,0.4-4,1.4-5.4,2.3l-9.8,6.5c-1.4,0.9-1.1,1.6,0.5,1.4l14.8-1.1c1.6-0.1,3.7,0.9,4.5,2.4l1.5,2.6"/>
	</g>
	<path class="st0" d="M150.7,15.2c-24.5,0-31.3,13.8-32.4,35.5c-3.6-21.7-13.1-35.5-37.6-35.5C36.1,15.2,0,60.4,0,116
		c0,42.8,10.4,81.5,53.8,95.5c12.4-1,19.3-7,29.5-7c20.9,0,30.3-7.1,34.3-20.3c2,13.2,9.4,20.3,30.3,20.3c10.3,0,17.2,6,29.5,7
		c41.9-20.2,53.8-52.6,53.8-95.5C231.4,60.4,195.2,15.2,150.7,15.2z M120.2,116.5c0-0.9,0-1.9,0-2.8
		C120.2,114.6,120.2,115.6,120.2,116.5c0,0.8,0,1.7,0,2.5C120.2,118.2,120.2,117.3,120.2,116.5z"/>
	<path class="st1" d="M172.4,214.8c2.5-1.1,4.2-2.3,5.1-3.3c18.3-20.2,71.2-83.3,48-136.3C216,53.6,207.5,17.5,178,0
		c-7.5,12.5-19.1,14-19.1,14s-25.6-5.9-43-6c0,0,0,0,0,0c-0.1,0-0.2,0-0.3,0c-0.1,0-0.2,0-0.3,0c0,0,0,0,0,0c-17.4,0.1-43,6-43,6
		S60.8,12.5,53.3,0c-29.5,17.5-38,53.6-47.5,75.2c-23.2,52.9,34.9,128.2,48,136.3c6.5,4,34.9,12.4,63.8,12.2
		C140.5,223.5,162.4,219.2,172.4,214.8"/>
	<circle class="st0" cx="63.2" cy="90.2" r="52.7"/>
	<circle class="st0" cx="166.7" cy="90.2" r="52.7"/>
	<g>
		<circle class="st2" cx="156.7" cy="90.2" r="42.7"/>
		<g>
			<circle class="st3" cx="156.7" cy="90.2" r="26.3"/>
			<circle class="st4" cx="156.7" cy="90.2" r="14.9"/>
			<circle class="st3" cx="164.2" cy="79.2" r="8.3"/>
		</g>
	</g>
	<g>
		<circle class="st2" cx="73.2" cy="90.2" r="42.7"/>
		<g>
			<circle class="st3" cx="73.2" cy="90.2" r="26.3"/>
			<circle class="st4" cx="73.2" cy="90.2" r="14.9"/>
			<circle class="st3" cx="80.7" cy="79.2" r="8.3"/>
		</g>
	</g>
	<path class="st4" d="M105,102.2c0,0,5.3-4,12.7-4c7.3,0,12.7,4,12.7,4s-8.3,22.7-12.7,22.7C113.3,124.8,105,102.2,105,102.2z"/>
</g>
</svg>
