<?xml version="1.0" encoding="iso-8859-1"?>
<!-- Generator: Adobe Illustrator 16.0.0, SVG Export Plug-In . SVG Version: 6.00 Build 0)  -->
<!DOCTYPE svg PUBLIC "-//W3C//DTD SVG 1.1//EN" "http://www.w3.org/Graphics/SVG/1.1/DTD/svg11.dtd">
<svg version="1.1" id="Capa_1" xmlns="http://www.w3.org/2000/svg" xmlns:xlink="http://www.w3.org/1999/xlink" x="0px" y="0px"
	 width="26.683px" height="26.684px" viewBox="0 0 26.683 26.684" style="enable-background:new 0 0 26.683 26.684;"
	 xml:space="preserve">
<g>
	<path fill="#32689E" d="M26.683,10.937c0-1.864-0.895-3.6-2.4-4.684c-0.551-2.512-2.773-4.313-5.363-4.316c-1.037-1.142-2.498-1.792-4.049-1.792
		c-1.081,0-2.158,0.334-3.062,0.945c-2.411-0.559-5.021,0.509-6.4,2.564C2.308,4.065,0,6.683,0,9.839
		c0,1.803,0.778,3.507,2.14,4.696c0.942,2.127,3.134,3.447,5.515,3.168c0.649,0.584,1.724,0.735,2.471,0.668
		c3.74-0.326,7.657,7.324,7.696,7.398l0.393,0.77l0.992-1.516c1.17-1.781,1.074-3.587,0.672-4.969c0.17,0.02,0.34,0.029,0.51,0.029
		c2.562,0,4.65-2.086,4.65-4.651c0-0.153-0.008-0.306-0.023-0.456C26.076,13.9,26.683,12.443,26.683,10.937z M16.818,8.261h-0.01
		c-0.049,1.056-0.434,1.646-0.812,2.212c-0.387,0.581-1.171,1.138-1.212,2.231c0.043,0.055,0.493,0.121,0.493,0.196v1.618
		c0,0.428-0.52,0.659-1.14,0.758c0.005,0.023,0.012,0.047,0.012,0.07c0,0.273-0.362,0.496-0.81,0.496
		c-0.446,0-0.809-0.223-0.809-0.496c0-0.023,0.007-0.047,0.012-0.07c-0.62-0.1-1.141-0.33-1.141-0.758v-1.618
		c0-0.076,0.451-0.142,0.494-0.196c-0.041-1.093-0.825-1.651-1.212-2.231c-0.188-0.282-0.379-0.573-0.53-0.922
		c-0.002-0.004-0.006-0.009-0.009-0.014c-0.003-0.008-0.005-0.017-0.008-0.025c-0.035-0.082-0.065-0.168-0.096-0.258
		c-0.006-0.023-0.017-0.047-0.024-0.071C9.985,9.075,9.955,8.96,9.932,8.838C9.915,8.75,9.906,8.658,9.895,8.564
		C9.891,8.529,9.884,8.496,9.879,8.458C9.867,8.324,9.86,8.184,9.86,8.038c0-1.918,1.561-3.478,3.478-3.478
		c0.106,0,0.221,0.004,0.336,0.017c0.031,0.002,0.06,0.008,0.091,0.012c0.012,0.001,0.023,0.003,0.034,0.004
		c1.701,0.227,3.017,1.683,3.017,3.444v0.224H16.818z"/>
</g>
<g>
</g>
<g>
</g>
<g>
</g>
<g>
</g>
<g>
</g>
<g>
</g>
<g>
</g>
<g>
</g>
<g>
</g>
<g>
</g>
<g>
</g>
<g>
</g>
<g>
</g>
<g>
</g>
<g>
</g>
</svg>
