<?xml version="1.0" encoding="utf-8"?>
<!-- Generator: Adobe Illustrator 17.0.0, SVG Export Plug-In . SVG Version: 6.00 Build 0)  -->
<!DOCTYPE svg PUBLIC "-//W3C//DTD SVG 1.1//EN" "http://www.w3.org/Graphics/SVG/1.1/DTD/svg11.dtd">
<svg version="1.1" xmlns="http://www.w3.org/2000/svg" xmlns:xlink="http://www.w3.org/1999/xlink" x="0px" y="0px" width="800px"
	 height="800px" viewBox="0 0 800 800" enable-background="new 0 0 800 800" xml:space="preserve">
<g id="background" display="none">
	<rect display="inline" fill="#F2F2F2" width="800" height="800"/>
	<g display="inline">
		<path fill-rule="evenodd" clip-rule="evenodd" fill="#333333" d="M391.352,775.363c0.246-0.144,0.66-0.17,0.635-0.518
			c-0.018-0.346-0.252-1.029,0.433-1.264c0.69-0.232,0.302,0.205,0.065,0.506c-0.237,0.301-0.16,0.486-0.131,0.93
			c0.024,0.438-0.283,0.588-0.748,0.805C391.139,776.041,391.103,775.51,391.352,775.363"/>
		<path fill-rule="evenodd" clip-rule="evenodd" fill="#333333" d="M380.162,771.449c2.674-0.67,4.346,0.1,4.346,0.1l-0.143,0.771
			c0,0-1.953-0.131-3.505,0.1c-1.547,0.223-2.252,0.713-2.252,0.713l-0.336-0.768C378.272,772.365,379.006,771.738,380.162,771.449"
			/>
		<polygon fill-rule="evenodd" clip-rule="evenodd" fill="#333333" points="380.963,770.352 381.34,770.215 381.836,771.545 
			381.463,771.69 		"/>
		<path fill-rule="evenodd" clip-rule="evenodd" fill="#333333" d="M392.741,772.828c0.377-0.022,0.701,0.266,0.724,0.641
			c0.026,0.377-0.261,0.699-0.64,0.725c-0.378,0.023-0.702-0.266-0.725-0.637C392.076,773.178,392.363,772.857,392.741,772.828"/>
		<path fill-rule="evenodd" clip-rule="evenodd" fill="#333333" d="M369.26,775.414c0.375-0.025,0.701,0.262,0.727,0.637
			c0.021,0.375-0.264,0.693-0.645,0.719c-0.375,0.025-0.697-0.26-0.726-0.633C368.594,775.76,368.883,775.441,369.26,775.414"/>
		<path fill-rule="evenodd" clip-rule="evenodd" fill="#333333" d="M381.291,768.646c0.6-0.033,1.119,0.414,1.155,1.016
			c0.035,0.592-0.422,1.111-1.022,1.15c-0.603,0.041-1.113-0.412-1.154-1.014C380.228,769.199,380.686,768.684,381.291,768.646"/>
		<g>
			<path fill="#333333" d="M397.796,776.676h0.685v-0.865c0-0.898,0.11-1.613,0.339-2.144c0.225-0.529,0.616-0.914,1.159-1.158
				c0.543-0.238,1.291-0.359,2.233-0.359c1.683,0,2.517,0.406,2.517,1.236c0,0.262-0.09,0.494-0.268,0.678
				c-0.17,0.191-0.379,0.285-0.616,0.285c-0.111,0-0.308-0.018-0.584-0.065c-0.263-0.041-0.502-0.066-0.691-0.066
				c-0.517,0-0.847,0.156-1.002,0.465c-0.14,0.299-0.216,0.736-0.216,1.309v0.686h0.701c1.096,0,1.639,0.324,1.639,0.99
				c0,0.465-0.139,0.762-0.432,0.893c-0.291,0.125-0.693,0.188-1.207,0.188h-0.701v7.607c0,0.565-0.133,0.996-0.41,1.289
				c-0.266,0.303-0.612,0.453-1.041,0.453c-0.409,0-0.743-0.15-1.019-0.453c-0.267-0.293-0.401-0.725-0.401-1.289v-7.607h-0.789
				c-0.433,0-0.756-0.092-0.991-0.287c-0.232-0.19-0.347-0.443-0.347-0.756C396.353,777.016,396.833,776.676,397.796,776.676"/>
			<path fill="#333333" d="M407.194,783.953v2.4c0,0.578-0.147,1.014-0.416,1.305c-0.272,0.295-0.616,0.438-1.036,0.438
				c-0.423,0-0.761-0.143-1.024-0.445c-0.263-0.293-0.399-0.723-0.399-1.297v-7.996c0-1.291,0.466-1.939,1.396-1.939
				c0.479,0,0.82,0.152,1.033,0.451c0.209,0.307,0.323,0.75,0.349,1.34c0.342-0.59,0.692-1.033,1.053-1.34
				c0.365-0.299,0.845-0.451,1.447-0.451c0.608,0,1.189,0.152,1.756,0.451c0.571,0.307,0.855,0.709,0.855,1.201
				c0,0.354-0.123,0.643-0.36,0.869c-0.246,0.229-0.506,0.344-0.783,0.344c-0.11,0-0.364-0.066-0.767-0.199
				c-0.403-0.125-0.76-0.19-1.067-0.19c-0.42,0-0.765,0.109-1.026,0.328c-0.268,0.225-0.478,0.551-0.627,0.984
				c-0.142,0.436-0.242,0.953-0.302,1.551C407.218,782.361,407.194,783.09,407.194,783.953"/>
			<path fill="#333333" d="M420.394,782.963h-5.619c0.011,0.654,0.138,1.232,0.394,1.727c0.257,0.496,0.601,0.871,1.022,1.127
				c0.427,0.252,0.892,0.377,1.402,0.377c0.346,0,0.659-0.041,0.944-0.125c0.28-0.074,0.558-0.205,0.824-0.377
				c0.268-0.172,0.51-0.352,0.733-0.553c0.226-0.195,0.519-0.463,0.873-0.799c0.153-0.125,0.362-0.189,0.633-0.189
				c0.295,0,0.531,0.08,0.717,0.246c0.185,0.16,0.272,0.385,0.272,0.684c0,0.26-0.099,0.561-0.296,0.908
				c-0.209,0.352-0.514,0.678-0.926,0.998c-0.414,0.316-0.931,0.588-1.547,0.797c-0.621,0.209-1.337,0.313-2.142,0.313
				c-1.849,0-3.281-0.521-4.302-1.576c-1.023-1.055-1.538-2.478-1.538-4.279c0-0.846,0.127-1.637,0.383-2.367
				c0.248-0.729,0.619-1.344,1.106-1.869c0.482-0.514,1.073-0.912,1.785-1.189c0.707-0.275,1.491-0.414,2.355-0.414
				c1.121,0,2.082,0.234,2.887,0.711c0.8,0.475,1.408,1.084,1.804,1.834c0.397,0.752,0.599,1.518,0.599,2.297
				c0,0.715-0.209,1.185-0.623,1.398C421.722,782.857,421.144,782.963,420.394,782.963 M414.774,781.332h5.207
				c-0.071-0.978-0.332-1.715-0.793-2.201c-0.461-0.486-1.061-0.727-1.815-0.727c-0.715,0-1.303,0.24-1.762,0.734
				C415.151,779.639,414.873,780.367,414.774,781.332"/>
			<path fill="#333333" d="M432.333,782.963h-5.614c0.008,0.654,0.139,1.232,0.393,1.727c0.253,0.496,0.597,0.871,1.019,1.127
				c0.425,0.252,0.893,0.377,1.406,0.377c0.342,0,0.659-0.041,0.94-0.125c0.282-0.074,0.556-0.205,0.826-0.377
				c0.268-0.172,0.51-0.352,0.735-0.553c0.219-0.195,0.517-0.463,0.871-0.799c0.151-0.125,0.362-0.189,0.631-0.189
				c0.299,0,0.533,0.08,0.722,0.246c0.18,0.16,0.268,0.385,0.268,0.684c0,0.26-0.102,0.561-0.303,0.908
				c-0.197,0.352-0.506,0.678-0.922,0.998c-0.41,0.316-0.929,0.588-1.543,0.797c-0.617,0.209-1.339,0.313-2.146,0.313
				c-1.843,0-3.275-0.521-4.302-1.576c-1.022-1.055-1.535-2.478-1.535-4.279c0-0.846,0.126-1.637,0.382-2.367
				c0.25-0.729,0.618-1.344,1.103-1.869c0.481-0.514,1.077-0.912,1.789-1.189c0.706-0.275,1.493-0.414,2.354-0.414
				c1.12,0,2.081,0.234,2.896,0.711c0.799,0.475,1.399,1.084,1.795,1.834c0.396,0.752,0.603,1.518,0.603,2.297
				c0,0.715-0.211,1.185-0.621,1.398C433.663,782.857,433.083,782.963,432.333,782.963 M426.719,781.332h5.202
				c-0.067-0.978-0.336-1.715-0.791-2.201c-0.465-0.486-1.064-0.727-1.815-0.727c-0.717,0-1.301,0.24-1.765,0.734
				C427.094,779.639,426.81,780.367,426.719,781.332"/>
			<path fill="#333333" d="M438.622,778.033v0.346c0.537-0.664,1.104-1.152,1.69-1.467c0.57-0.31,1.234-0.473,1.97-0.473
				c0.881,0,1.701,0.23,2.446,0.685c0.742,0.461,1.324,1.121,1.755,2.002c0.434,0.879,0.651,1.912,0.651,3.113
				c0,0.881-0.125,1.691-0.371,2.436c-0.248,0.738-0.597,1.359-1.028,1.857c-0.437,0.498-0.949,0.891-1.539,1.16
				c-0.599,0.269-1.229,0.402-1.914,0.402c-0.817,0-1.51-0.164-2.063-0.494c-0.56-0.322-1.088-0.815-1.597-1.449v4.311
				c0,1.262-0.463,1.893-1.377,1.893c-0.543,0-0.893-0.16-1.075-0.486c-0.169-0.33-0.259-0.799-0.259-1.428v-12.391
				c0-0.547,0.117-0.955,0.354-1.225c0.238-0.266,0.565-0.408,0.979-0.408c0.408,0,0.736,0.142,0.99,0.418
				C438.497,777.115,438.622,777.51,438.622,778.033 M444.251,782.205c0-0.758-0.116-1.406-0.35-1.947
				c-0.23-0.549-0.55-0.959-0.961-1.254c-0.404-0.291-0.863-0.435-1.363-0.435c-0.789,0-1.457,0.31-2,0.935
				c-0.545,0.625-0.817,1.541-0.817,2.758c0,1.139,0.271,2.027,0.811,2.668c0.541,0.631,1.205,0.947,2.006,0.947
				c0.478,0,0.92-0.141,1.328-0.412c0.409-0.279,0.735-0.693,0.977-1.25C444.129,783.662,444.251,782.988,444.251,782.205"/>
			<path fill="#333333" d="M450.024,775.08c-0.401,0-0.739-0.125-1.021-0.363c-0.286-0.254-0.43-0.594-0.43-1.039
				c0-0.408,0.146-0.744,0.439-1.006c0.289-0.264,0.631-0.398,1.012-0.398c0.377,0,0.703,0.121,0.99,0.358
				c0.287,0.242,0.432,0.59,0.432,1.047c0,0.44-0.141,0.785-0.42,1.035C450.746,774.955,450.416,775.08,450.024,775.08
				 M451.446,778.051v8.303c0,0.574-0.137,1.004-0.409,1.297c-0.276,0.303-0.621,0.445-1.041,0.445c-0.425,0-0.759-0.15-1.028-0.453
				c-0.257-0.305-0.394-0.73-0.394-1.289v-8.223c0-0.561,0.137-0.99,0.394-1.273c0.27-0.297,0.604-0.439,1.028-0.439
				c0.42,0,0.765,0.142,1.041,0.439C451.31,777.141,451.446,777.545,451.446,778.051"/>
			<path fill="#333333" d="M460.703,786.787l-2.529-4.17l-1.562,1.471v2.287c0,0.553-0.143,0.973-0.438,1.268
				c-0.283,0.303-0.625,0.453-1.002,0.453c-0.444,0-0.789-0.143-1.043-0.445c-0.248-0.293-0.379-0.723-0.379-1.297v-12.25
				c0-0.635,0.125-1.121,0.366-1.451c0.248-0.338,0.603-0.504,1.056-0.504c0.44,0,0.789,0.15,1.049,0.459
				c0.261,0.295,0.392,0.742,0.392,1.33v6.965l3.23-3.389c0.401-0.418,0.703-0.707,0.916-0.863c0.213-0.15,0.465-0.232,0.763-0.232
				c0.362,0,0.659,0.117,0.905,0.342c0.233,0.23,0.353,0.516,0.353,0.859c0,0.414-0.39,0.984-1.166,1.684l-1.524,1.395l2.942,4.633
				c0.213,0.344,0.375,0.604,0.47,0.783c0.094,0.176,0.144,0.352,0.144,0.512c0,0.457-0.125,0.813-0.375,1.08
				c-0.25,0.262-0.584,0.391-0.984,0.391c-0.35,0-0.62-0.088-0.809-0.283C461.284,787.619,461.022,787.279,460.703,786.787"/>
			<path fill="#333333" d="M466.94,788.096c-0.436,0-0.807-0.139-1.123-0.42c-0.314-0.277-0.475-0.674-0.475-1.182
				c0-0.426,0.155-0.795,0.455-1.1c0.303-0.31,0.674-0.461,1.114-0.461s0.817,0.15,1.134,0.451c0.309,0.307,0.471,0.68,0.471,1.109
				c0,0.504-0.162,0.893-0.471,1.174C467.729,787.957,467.361,788.096,466.94,788.096"/>
			<path fill="#333333" d="M481.222,784.539c0,0.361-0.108,0.742-0.321,1.146c-0.213,0.412-0.541,0.793-0.983,1.168
				c-0.435,0.365-0.986,0.66-1.654,0.887c-0.666,0.223-1.416,0.338-2.245,0.338c-1.779,0-3.166-0.518-4.162-1.553
				c-0.992-1.035-1.492-2.422-1.492-4.158c0-1.186,0.226-2.223,0.686-3.131c0.451-0.898,1.111-1.602,1.976-2.096
				c0.86-0.496,1.896-0.74,3.092-0.74c0.744,0,1.425,0.109,2.05,0.326c0.621,0.215,1.143,0.5,1.578,0.838
				c0.426,0.352,0.758,0.713,0.985,1.098c0.228,0.393,0.34,0.756,0.34,1.098c0,0.338-0.125,0.633-0.381,0.867
				c-0.259,0.242-0.571,0.363-0.929,0.363c-0.241,0-0.44-0.066-0.6-0.188c-0.158-0.125-0.335-0.322-0.531-0.596
				c-0.351-0.535-0.715-0.934-1.099-1.197c-0.379-0.272-0.866-0.402-1.455-0.402c-0.844,0-1.534,0.332-2.051,0.996
				c-0.519,0.658-0.78,1.572-0.78,2.717c0,0.537,0.071,1.041,0.204,1.49c0.127,0.449,0.322,0.836,0.576,1.158
				c0.254,0.316,0.556,0.555,0.912,0.723c0.36,0.172,0.754,0.252,1.18,0.252c0.578,0,1.07-0.137,1.478-0.404
				c0.418-0.266,0.777-0.674,1.095-1.219c0.174-0.32,0.358-0.574,0.56-0.754c0.203-0.18,0.453-0.275,0.748-0.275
				c0.354,0,0.647,0.135,0.873,0.4C481.103,783.953,481.222,784.246,481.222,784.539"/>
			<path fill="#333333" d="M493.611,782.262c0,0.853-0.136,1.641-0.394,2.365c-0.274,0.723-0.656,1.346-1.164,1.857
				c-0.502,0.523-1.11,0.92-1.805,1.195c-0.708,0.277-1.496,0.416-2.371,0.416c-0.867,0-1.65-0.139-2.345-0.42
				c-0.69-0.277-1.297-0.682-1.804-1.201c-0.51-0.527-0.893-1.145-1.161-1.854c-0.255-0.715-0.392-1.5-0.392-2.359
				c0-0.869,0.142-1.668,0.399-2.393c0.267-0.727,0.651-1.34,1.151-1.848c0.5-0.512,1.097-0.91,1.806-1.186
				c0.711-0.275,1.494-0.418,2.345-0.418c0.87,0,1.659,0.142,2.371,0.422c0.704,0.281,1.307,0.684,1.817,1.193
				c0.508,0.529,0.891,1.143,1.153,1.855C493.477,780.607,493.611,781.396,493.611,782.262 M490.727,782.262
				c0-1.172-0.26-2.078-0.772-2.732c-0.514-0.658-1.207-0.984-2.077-0.984c-0.562,0-1.054,0.143-1.484,0.436
				c-0.43,0.293-0.752,0.717-0.987,1.291c-0.229,0.568-0.347,1.231-0.347,1.99c0,0.754,0.111,1.4,0.341,1.963
				c0.231,0.561,0.555,0.994,0.981,1.291c0.428,0.295,0.924,0.449,1.496,0.449c0.87,0,1.563-0.328,2.077-0.986
				C490.468,784.32,490.727,783.416,490.727,782.262"/>
			<path fill="#333333" d="M504.56,782.471v3.818c0,0.603-0.132,1.049-0.406,1.353c-0.278,0.303-0.633,0.453-1.084,0.453
				c-0.435,0-0.791-0.15-1.051-0.453c-0.275-0.305-0.412-0.75-0.412-1.353v-4.576c0-0.723-0.024-1.287-0.072-1.69
				c-0.051-0.391-0.185-0.721-0.401-0.98c-0.219-0.254-0.564-0.385-1.03-0.385c-0.943,0-1.56,0.322-1.855,0.975
				c-0.295,0.639-0.45,1.568-0.45,2.779v3.877c0,0.594-0.136,1.045-0.401,1.35c-0.273,0.307-0.627,0.457-1.068,0.457
				c-0.434,0-0.793-0.15-1.071-0.457c-0.276-0.305-0.418-0.756-0.418-1.35v-8.219c0-0.535,0.129-0.949,0.373-1.231
				c0.256-0.279,0.582-0.422,0.987-0.422c0.394,0,0.72,0.137,0.986,0.396c0.262,0.26,0.391,0.625,0.391,1.09v0.271
				c0.504-0.59,1.035-1.035,1.601-1.311c0.572-0.285,1.197-0.426,1.897-0.426c0.72,0,1.34,0.146,1.857,0.43
				c0.521,0.293,0.945,0.731,1.283,1.307c0.489-0.586,1.008-1.025,1.561-1.311c0.555-0.279,1.168-0.426,1.84-0.426
				c0.783,0,1.465,0.162,2.033,0.467c0.564,0.305,0.985,0.754,1.267,1.318c0.249,0.525,0.368,1.344,0.368,2.457v5.608
				c0,0.603-0.137,1.049-0.409,1.353c-0.268,0.303-0.634,0.453-1.084,0.453c-0.435,0-0.789-0.15-1.064-0.457
				c-0.278-0.305-0.415-0.756-0.415-1.35v-4.832c0-0.617-0.029-1.109-0.08-1.484c-0.054-0.369-0.193-0.682-0.425-0.934
				c-0.233-0.25-0.588-0.381-1.055-0.381c-0.377,0-0.738,0.121-1.078,0.342c-0.34,0.223-0.604,0.529-0.799,0.898
				C504.669,780.387,504.56,781.242,504.56,782.471"/>
			<path fill-rule="evenodd" clip-rule="evenodd" fill="#333333" d="M377.912,789.102c0,0-1.568-0.252-3.099-1.924
				c-1.539-1.688-1.798-3.473-1.798-3.473s1.953,0.459,3.355,0.615c2.475,0.281,4.701,0.125,5.75,0.01
				c2.272-0.252,3.481-0.668,3.975-0.789c2.902-0.699,5.693-2.576,5.693-2.576s0.354,2.18-1.285,4.6
				c-0.641,0.943-1.916,2.029-3.383,2.777C382.094,790.486,377.912,789.102,377.912,789.102"/>
			<path fill-rule="evenodd" clip-rule="evenodd" fill="#333333" d="M389.781,776.705c-0.537-0.654-2.338-3.736-5.979-4.186
				c-0.929-0.111-5.853,0.082-8.806,2.813c-0.291,0.277-1.791,1.592-2.287,4.045c-0.389,1.894,0.246,4.027,0.246,4.027
				s3.275,0.684,5.742,0.619c3.912-0.096,5.883-0.443,7.928-1.063c3.011-0.91,5.146-2.438,5.146-2.438
				S390.324,777.363,389.781,776.705 M378.49,781.396c-1.654,0.106-3.078-1.139-3.18-2.789c-0.103-1.641,1.155-3.066,2.809-3.166
				c1.656-0.113,3.084,1.139,3.181,2.779C381.406,779.869,380.145,781.293,378.49,781.396 M386.943,779.273
				c-1.041,0.059-1.938-0.725-2.004-1.76c-0.064-1.033,0.73-1.93,1.77-1.992c1.039-0.07,1.941,0.719,2.004,1.75
				C388.779,778.309,387.982,779.205,386.943,779.273"/>
			<path fill-rule="evenodd" clip-rule="evenodd" fill="#333333" d="M388.367,774.57l0.951-1.141c0,0,1.313,0.648,2.159,1.863
				c0.838,1.213,1.387,2.322,1.387,2.322l-1.569,0.953c0,0-0.485-1.17-1.217-2.109C389.351,775.525,388.367,774.57,388.367,774.57"
				/>
			<path fill-rule="evenodd" clip-rule="evenodd" fill="#333333" d="M373.91,776.065c0,0-1.101,1.279-1.383,2.433
				c-0.277,1.16-0.222,2.555-0.222,2.555l-1.628-0.56c0,0-0.094-1.604,0.648-2.896c0.823-1.439,1.879-2.08,1.879-2.08
				L373.91,776.065z"/>
			<path fill-rule="evenodd" clip-rule="evenodd" fill="#333333" d="M371.512,777.519c-0.267-0.172-0.291-0.584-0.5-0.853
				c-0.209-0.277-0.263-0.111-0.74-0.111c-0.478,0-0.492-0.227-0.627-0.344c-0.137-0.121-0.201,0.365-0.201,0.365
				s0.088,0.406,0.602,0.436c0.51,0.029,0.498-0.221,0.717,0.238c0.221,0.465,0.656,0.816,0.656,0.816
				S371.779,777.695,371.512,777.519"/>
			<path fill="#333333" d="M295.867,786.516c0,0.672-0.422,1.113-1.008,1.113c-0.553,0-0.875-0.301-1.002-0.836
				c-0.377,0.615-1.154,0.916-1.838,0.916c-2.021,0-3.302-1.871-3.302-3.769c0-1.957,1.072-3.975,3.234-3.975
				c0.695,0,1.377,0.242,1.906,0.699v-2.734c0-0.668,0.418-1.109,1.002-1.109c0.586,0,1.008,0.441,1.008,1.109V786.516z
				 M292.285,781.809c-1.045,0-1.562,1.094-1.562,2.043c0,0.934,0.517,2.025,1.562,2.025c1.098,0,1.572-1.115,1.572-2.096
				C293.856,782.809,293.356,781.809,292.285,781.809"/>
			<path fill="#333333" d="M298.621,784.51c0.144,0.984,0.963,1.449,1.902,1.449c1.027,0,1.736-0.805,2.27-0.805
				c0.429,0,0.816,0.426,0.816,0.865c0,0.863-1.779,1.69-3.272,1.69c-2.259,0-3.761-1.641-3.761-3.857
				c0-2.035,1.476-3.887,3.593-3.887c2.174,0,3.61,1.977,3.61,3.652c0,0.598-0.266,0.893-0.877,0.893H298.621z M301.773,783.17
				c-0.109-0.879-0.668-1.529-1.604-1.529c-0.89,0-1.492,0.68-1.587,1.529H301.773z"/>
			<path fill="#333333" d="M308.714,782.307c-0.377,0-1.143-0.59-1.799-0.59c-0.361,0-0.683,0.17-0.683,0.565
				c0,0.933,3.484,0.793,3.484,3.078c0,1.336-1.127,2.35-2.859,2.35c-1.127,0-2.797-0.635-2.797-1.541
				c0-0.305,0.304-0.887,0.861-0.887c0.781,0,1.129,0.678,2.074,0.678c0.615,0,0.797-0.197,0.797-0.574
				c0-0.92-3.482-0.779-3.482-3.078c0-1.392,1.129-2.342,2.718-2.342c0.987,0,2.506,0.461,2.506,1.453
				C309.534,781.873,309.188,782.307,308.714,782.307"/>
			<path fill="#333333" d="M312.531,778.141c0,0.629-0.5,1.158-1.129,1.158c-0.6,0-1.129-0.545-1.129-1.158
				c0-0.57,0.529-1.1,1.129-1.1C312,777.041,312.531,777.553,312.531,778.141 M310.398,781.168c0-0.67,0.418-1.119,1.004-1.119
				c0.584,0,1.002,0.449,1.002,1.119v5.348c0,0.674-0.418,1.113-1.002,1.113c-0.586,0-1.004-0.439-1.004-1.113V781.168z"/>
			<path fill="#333333" d="M320.376,786.961c0,2.412-1.576,3.629-3.861,3.629c-0.821,0-3.164-0.408-3.164-1.508
				c0-0.375,0.418-0.879,0.812-0.879c0.639,0,1.35,0.623,2.506,0.623c0.978,0,1.699-0.563,1.699-1.588v-0.473h-0.027
				c-0.416,0.613-1.102,0.943-2.02,0.943c-2.103,0-3.093-1.846-3.093-3.842c0-2.019,1.277-3.902,3.3-3.902
				c0.686,0,1.461,0.307,1.84,0.918c0.127-0.525,0.445-0.834,1.004-0.834c0.584,0,1.004,0.449,1.004,1.119V786.961z
				 M316.792,781.809c-1.043,0-1.557,1.084-1.557,2.018c0,1.074,0.514,2.051,1.557,2.051c1.072,0,1.576-1.008,1.576-1.984
				C318.369,782.922,317.896,781.809,316.792,781.809"/>
			<path fill="#333333" d="M321.519,781.168c0-0.67,0.416-1.119,1.002-1.119c0.514,0,0.852,0.277,0.918,0.744
				c0.393-0.547,0.988-0.828,1.937-0.828c1.575,0,2.745,1.004,2.745,2.701v3.85c0,0.674-0.413,1.113-1,1.113
				c-0.582,0-1.006-0.439-1.006-1.113v-3.496c0-0.934-0.582-1.379-1.309-1.379c-0.824,0-1.281,0.6-1.281,1.379v3.496
				c0,0.674-0.42,1.113-1.004,1.113c-0.586,0-1.002-0.439-1.002-1.113V781.168z"/>
			<path fill="#333333" d="M330.881,784.51c0.14,0.984,0.961,1.449,1.896,1.449c1.033,0,1.742-0.805,2.27-0.805
				c0.433,0,0.826,0.426,0.826,0.865c0,0.863-1.787,1.69-3.278,1.69c-2.259,0-3.761-1.641-3.761-3.857
				c0-2.035,1.476-3.887,3.593-3.887c2.176,0,3.61,1.977,3.61,3.652c0,0.598-0.266,0.893-0.877,0.893H330.881z M334.031,783.17
				c-0.111-0.879-0.67-1.529-1.604-1.529c-0.892,0-1.492,0.68-1.587,1.529H334.031z"/>
			<path fill="#333333" d="M343.603,786.516c0,0.672-0.418,1.113-1.006,1.113c-0.554,0-0.871-0.301-1-0.836
				c-0.379,0.615-1.156,0.916-1.84,0.916c-2.019,0-3.3-1.871-3.3-3.769c0-1.957,1.072-3.975,3.234-3.975
				c0.693,0,1.377,0.242,1.906,0.699v-2.734c0-0.668,0.418-1.109,1-1.109c0.588,0,1.006,0.441,1.006,1.109V786.516z
				 M340.023,781.809c-1.045,0-1.561,1.094-1.561,2.043c0,0.934,0.516,2.025,1.561,2.025c1.098,0,1.574-1.115,1.574-2.096
				C341.597,782.809,341.095,781.809,340.023,781.809"/>
			<path fill="#333333" d="M348.478,777.93c0-0.668,0.422-1.109,1.008-1.109c0.586,0,1.002,0.441,1.002,1.109v2.734
				c0.531-0.457,1.211-0.699,1.908-0.699c2.16,0,3.232,2.018,3.232,3.977c0,1.896-1.277,3.768-3.302,3.768
				c-0.682,0-1.463-0.301-1.838-0.916c-0.127,0.535-0.446,0.836-1.002,0.836c-0.586,0-1.008-0.439-1.008-1.113V777.93z
				 M352.062,785.877c1.045,0,1.559-1.092,1.559-2.025c0-0.949-0.514-2.043-1.559-2.043c-1.072,0-1.574,1-1.574,1.973
				C350.488,784.762,350.964,785.877,352.062,785.877"/>
			<path fill="#333333" d="M355.978,781.428c-0.057-0.15-0.1-0.307-0.1-0.514c0-0.506,0.53-0.865,0.95-0.865
				c0.484,0,0.834,0.268,1.004,0.709l1.375,3.781l1.48-3.781c0.168-0.441,0.514-0.709,1.004-0.709c0.419,0,0.945,0.359,0.945,0.865
				c0,0.207-0.026,0.363-0.096,0.514l-3.359,8.363c-0.162,0.416-0.473,0.799-0.947,0.799c-0.682,0-1.043-0.438-1.043-0.863
				c0-0.203,0.057-0.408,0.121-0.59l0.881-2.176L355.978,781.428z"/>
		</g>
	</g>
</g>
<g id="objects">
	<ellipse fill="#E6E6E6" cx="400" cy="709.5" rx="287" ry="10.5"/>
	<g>
		<g>
			<path fill="#FCF6EA" d="M630.86,704H215.829C190.147,704,168,681.846,168,656.162v-6.975C168,623.504,190.147,604,215.829,604
				H630.86c0,0-11.626,16.268-11.626,47.676C619.234,687.685,630.86,704,630.86,704z"/>
		</g>
		<g>
			<path fill="#E8E3D8" d="M635.697,706H377V606h258.697c0,0-11.625,16.268-11.625,47.676C624.072,689.685,635.697,706,635.697,706z
				"/>
		</g>
		<g>
			<path fill="#333333" d="M223,705.334c-28.598,0-51-21.088-51-48.009v-6.976c0-13.232,5.465-25.492,15.389-34.52
				c9.626-8.757,22.362-13.58,35.861-13.58c1.933,0,3.5,1.567,3.5,3.5s-1.567,3.5-3.5,3.5c-24.813,0-44.25,18.053-44.25,41.1v6.976
				c0,22.995,19.327,41.009,44,41.009c1.933,0,3.5,1.567,3.5,3.5C226.5,703.767,224.933,705.334,223,705.334z"/>
		</g>
		<g>
			<path fill="#B2E3D1" d="M639,710H214.666C185.576,710,161,685.346,161,656.162v-6.975C161,620.963,185.075,598,214.666,598H639
				v12H214.666C191.691,610,173,627.579,173,649.188v6.975C173,678.449,192.47,698,214.666,698H639V710z"/>
		</g>
	</g>
	<g>
		<g>
			<path fill="#FCF6EA" d="M537.146,298H265.872C246.61,298,230,280.884,230,261.622v-5.231C230,237.128,246.61,223,265.872,223
				h271.273c0,0-8.72,12.201-8.72,35.757C528.426,285.764,537.146,298,537.146,298z"/>
		</g>
		<g>
			<path fill="#E8E3D8" d="M540.773,299H387v-75h153.773c0,0-8.719,12.201-8.719,35.757C532.055,286.764,540.773,299,540.773,299z"
				/>
		</g>
		<g>
			<path fill="#333333" d="M271.25,298.5c-21.449,0-38.25-15.816-38.25-36.006v-5.232c0-9.924,4.099-19.119,11.541-25.89
				c7.219-6.568,16.771-10.185,26.896-10.185c1.45,0,2.625,1.176,2.625,2.625s-1.3,2.625-2.75,2.625
				c-18.61,0-33.313,13.54-33.313,30.825v5.232c0,17.246,14.62,30.756,33.125,30.756c1.45,0,2.688,1.175,2.688,2.625
				C273.813,297.325,272.7,298.5,271.25,298.5z"/>
		</g>
		<g>
			<path fill="#998675" d="M543,302H265c-21.818,0-40-18.491-40-40.378v-5.231C225,235.222,242.806,218,265,218h278v9H265
				c-17.231,0-31,13.185-31,29.391v5.231C234,278.337,248.352,293,265,293h278V302z"/>
		</g>
	</g>
	<g>
		<g>
			<path fill="#FCF6EA" d="M590.686,438H324.785C304.866,438,288,420.876,288,400.956v-5.409C288,375.626,304.866,361,324.785,361
				h265.901c0,0-9.017,12.337-9.017,36.697C581.67,425.627,590.686,438,590.686,438z"/>
		</g>
		<g>
			<path fill="#333333" d="M328.757,441.873c-21.371,0-38.757-17.951-38.757-40.016v-5.41c0-21.476,17.888-38.947,39.875-38.947
				c1.933,0,3.5,1.567,3.5,3.5s-1.567,3.5-3.5,3.5c-18.127,0-32.875,14.332-32.875,31.947v5.41
				c0,18.205,14.246,33.016,31.757,33.016c1.933,0,3.5,1.567,3.5,3.5C332.257,440.307,330.69,441.873,328.757,441.873z"/>
		</g>
		<g>
			<path fill="#005C99" d="M597,443H323.884C302.104,443,283,423.353,283,400.956v-5.409C283,373.932,300.958,357,323.884,357H597v8
				H323.884C305.444,365,291,378.418,291,395.547v5.409C291,419.092,306.366,435,323.884,435H597V443z"/>
		</g>
	</g>
	<g>
		<g>
			<path fill="#FCF6EA" d="M242.264,594h111.305C371.348,594,387,578.584,387,560.805v-4.828C387,538.197,371.348,525,353.568,525
				H242.264c0,0,8.048,11.148,8.048,32.891C250.311,582.818,242.264,594,242.264,594z"/>
		</g>
		<g>
			<path fill="#9E005D" d="M356.264,593h173.305C547.348,593,563,577.584,563,559.805v-4.828C563,537.197,547.348,524,529.568,524
				H356.264c0,0,18.048,11.148,18.048,32.891C374.311,581.818,356.264,593,356.264,593z"/>
		</g>
		<g>
			<path fill="#333333" d="M354.266,595.5c-0.837,0-1.654-0.42-2.127-1.184c-0.728-1.174-0.365-2.715,0.808-3.441
				c0.684-0.429,16.865-10.833,16.865-33.984c0-20.115-16.693-30.659-16.862-30.764c-1.174-0.726-1.539-2.267-0.813-3.44
				c0.725-1.176,2.265-1.539,3.441-0.814c0.785,0.485,19.234,12.145,19.234,35.018c0,26.02-18.446,37.748-19.231,38.234
				C355.17,595.379,354.715,595.5,354.266,595.5z"/>
		</g>
		<g>
			<path fill="#9E005D" d="M529.373,598H236v-8h293.373C544.349,590,557,576.172,557,559.805v-4.828
				C557,539.925,545.381,529,529.373,529H236v-8h293.373C550.017,521,565,535.289,565,554.977v4.828
				C565,580.509,548.685,598,529.373,598z"/>
		</g>
		<g>
			<g>
				<path fill="#FBB03B" d="M436.311,559.891c0-21.742-10.048-38.891-10.048-38.891h-19c0,0,10.048,17.148,10.048,38.891
					c0,24.928-10.048,38.109-10.048,38.109h19C426.264,598,436.311,584.818,436.311,559.891z"/>
			</g>
		</g>
		<g>
			<g>
				<path fill="#FBB03B" d="M526.311,559.891c0-21.742-10.048-38.891-10.048-38.891h-19c0,0,10.048,17.148,10.048,38.891
					c0,24.928-10.048,38.109-10.048,38.109h19C516.264,598,526.311,584.818,526.311,559.891z"/>
			</g>
		</g>
	</g>
	<g>
		<g>
			<path fill="#FCF6EA" d="M522.951,165H410.072C398.112,165,388,154.338,388,142.378v-3.248c0-11.961,10.112-21.13,22.072-21.13
				h112.879c0,0-5.414,7.79-5.414,22.417C517.537,157.187,522.951,165,522.951,165z"/>
		</g>
		<g>
			<path fill="#D86060" d="M408.26,164H291.671C279.71,164,269,153.666,269,141.705v-3.248C269,126.496,279.71,118,291.671,118
				H408.26c0,0-12.142,7.29-12.142,21.917C396.118,156.688,408.26,164,408.26,164z"/>
		</g>
		<g>
			<path fill="#333333" d="M409.603,165.719c0.563,0,1.113-0.283,1.431-0.796c0.489-0.79,0.246-1.827-0.544-2.315
				c-0.46-0.288-11.345-7.288-11.345-22.862c0-13.532,11.23-20.625,11.344-20.696c0.79-0.488,1.034-1.525,0.547-2.314
				c-0.488-0.791-1.817-0.853-2.608-0.364c-0.528,0.327-12.646,7.987-12.646,23.374c0,17.505,12.41,25.395,12.938,25.722
				C408.995,165.637,409.302,165.719,409.603,165.719z"/>
		</g>
		<g>
			<path fill="#D86060" d="M291.803,167H527v-5H291.803C281.727,162,273,152.716,273,141.705v-3.248
				c0-10.126,8.033-17.457,18.803-17.457H527v-5H291.803C277.914,116,268,125.212,268,138.457v3.248
				C268,155.633,278.81,167,291.803,167z"/>
		</g>
	</g>
	<g>
		<g>
			<path fill="#FCF6EA" d="M311.925,115h130.299c7.872,0,14.775-7.049,14.775-14.922V97.94c0-7.873-6.903-13.94-14.775-13.94
				H311.925c0,0,3.564,5.16,3.564,14.788C315.489,109.825,311.925,115,311.925,115z"/>
		</g>
		<g>
			<path fill="#8DDFE3" d="M443.418,114h76.741c7.873,0,15.841-6.492,15.841-14.365v-2.138C536,89.624,528.032,84,520.159,84
				h-76.741c0,0,7.991,4.659,7.991,14.287C451.409,109.325,443.418,114,443.418,114z"/>
		</g>
		<g>
			<path fill="#333333" d="M442.532,115.441c-0.369,0-0.731-0.187-0.94-0.524c-0.322-0.52-1.097-0.502-0.576-0.823
				c0.302-0.19,8.401-5.498,8.401-15.749c0-8.908-7.392-13.576-7.467-13.623c-0.521-0.322-0.681-1.004-0.359-1.523
				c0.321-0.521,1.982,0.235,2.504,0.556c0.347,0.215,7.537,4.461,7.537,14.59c0,11.522-8.169,16.715-8.517,16.931
				C442.934,115.388,442.731,115.441,442.532,115.441z"/>
		</g>
		<g>
			<path fill="#8DDFE3" d="M520.072,116H309v-4h211.072c6.633,0,11.928-5.117,11.928-12.365v-2.138C532,90.832,527.16,87,520.072,87
				H309v-4h211.072C529.214,83,536,88.779,536,97.497v2.138C536,108.803,528.624,116,520.072,116z"/>
		</g>
	</g>
	<g>
		<rect x="211" y="443" fill="#333333" width="401" height="78"/>
		<rect x="235" y="443" fill="#FBB03B" width="15" height="78"/>
		<rect x="261" y="443" fill="#FBB03B" width="15" height="78"/>
		<rect x="546" y="443" fill="#FBB03B" width="32" height="78"/>
	</g>
	<g>
		<rect x="223" y="167" fill="#394A42" width="369" height="51"/>
		<rect x="559" y="167" fill="#FBB03B" width="15" height="51"/>
		<circle fill="#FBB03B" cx="270" cy="193" r="14"/>
	</g>
	<g>
		<g>
			<path fill="#FCF6EA" d="M210,354h264.704c17.185,0,32.296-6.778,32.296-23.962v-4.667C507,308.186,491.889,304,474.704,304H210
				V354z"/>
		</g>
		<g>
			<path fill="#E8E3D8" d="M194.623,354H368v-50H194.623c0,0,4.366,10.284,4.366,25.151C198.989,344.143,194.623,354,194.623,354z"
				/>
		</g>
		<g>
			<path fill="#C1272D" d="M473.776,357H190v-5h283.776C493.44,352,503,344.816,503,330.038v-4.667
				c0-12.876-8.74-18.371-29.224-18.371H190v-5h283.776c14.691,0,34.224,2.423,34.224,23.371v4.667
				C508,342.338,502.063,357,473.776,357z"/>
		</g>
	</g>
</g>
</svg>
