<?xml version="1.0" encoding="utf-8"?>
<!-- Generator: Adobe Illustrator 17.0.0, SVG Export Plug-In . SVG Version: 6.00 Build 0)  -->
<!DOCTYPE svg PUBLIC "-//W3C//DTD SVG 1.1//EN" "http://www.w3.org/Graphics/SVG/1.1/DTD/svg11.dtd">
<svg version="1.1" id="Layer_1" xmlns="http://www.w3.org/2000/svg" xmlns:xlink="http://www.w3.org/1999/xlink" x="0px" y="0px"
	 width="2000px" height="503.5px" viewBox="0 0 2000 503.5" enable-background="new 0 0 2000 503.5" xml:space="preserve">
<polygon fill="#3482D2" points="1644.5,-21.75 1744.5,-11.75 1804.5,218.25 "/>
<polygon fill="#1B5A9B" points="1124.5,-21.75 854.5,198.25 944.5,228.25 "/>
<polygon fill="#32689E " points="1434.5,-21.75 1644.5,-21.75 1524.5,158.25 "/>
<polygon fill="#3E8BDA " points="1434.5,-21.75 1344.5,138.25 1524.5,158.25 "/>
<polygon fill="#32689E " points="1124.5,-21.75 1434.5,-21.75 1344.5,138.25 "/>
<polyline fill="#3E8BDA " points="1084.5,148.25 1124.5,-21.75 1344.5,138.25 "/>
<polygon fill="#3E8BDA " points="1034.5,268.25 1194.5,58.25 1354.5,288.25 "/>
<polygon fill="#3482D2" points="1434.5,148.25 1354.5,288.25 1194.5,58.25 "/>
<polygon fill="#3A9AFD " points="1434.5,148.25 1534.5,288.25 1354.5,288.25 "/>
<polygon fill="#2167AE" points="1124.5,-21.75 954.5,198.25 1094.5,158.25 "/>
<polygon fill="#3E8BDA " points="1644.5,-21.75 1804.5,218.25 1524.5,158.25 "/>
<polygon fill="#3D95EF" points="1634.5,88.25 1434.5,148.25 1534.5,288.25 "/>
<polygon fill="#32689E " points="934.5,218.25 1034.5,278.25 1194.5,58.25 "/>
<polygon fill="#3A9AFD " points="1784.5,248.25 1534.5,288.25 1634.5,88.25 "/>
<polygon fill="#2B7ED2 " points="1044.5,188.25 1344.5,248.25 1244.5,488.25 "/>
<polygon fill="#4FA1F5 " points="1484.5,518.25 1244.5,488.25 1344.5,248.25 "/>
<polygon fill="#2B7ED2 " points="1584.5,258.25 1344.5,248.25 1484.5,518.25 "/>
<polygon fill="#4FA1F5 " points="1744.5,228.25 1484.5,518.25 1584.5,258.25 "/>
<polygon fill="#3A9AFD " points="1824.5,538.25 1744.5,228.25 1484.5,518.25 "/>
<polygon fill="#196DC2" points="884.5,498.25 1044.5,188.25 1244.5,488.25 "/>
<polygon fill="#32689E " points="1634.5,88.25 1904.5,228.25 1784.5,278.25 "/>
<polyline fill="#2167AE" points="884.5,498.25 814.5,178.25 1044.5,188.25 "/>
<polygon fill="#1B5A9B" points="624.5,508.25 814.5,178.25 884.5,498.25 "/>
<polygon fill="#3E8BDA " points="1904.5,228.25 1744.5,228.25 1824.5,538.25 "/>
<polygon fill="#2167AE" points="2004.5,528.25 1904.5,228.25 1824.5,538.25 "/>
</svg>
